<svg width="106" height="106" viewBox="0 0 106 106" fill="none" xmlns="http://www.w3.org/2000/svg">
<path d="M64.3803 12.2046C57.9343 3.85445 45.3412 0.575494 39.5829 0.0084151C39.0658 -0.041173 38.552 0.129883 38.1705 0.482232C37.7888 0.834352 37.5759 1.33274 37.5853 1.85205C37.5953 2.41321 38.6043 58.2025 39.8631 78.5048C40.1657 83.3821 42.8314 86.5267 47.1057 87.207V104.18C47.1057 105.185 47.9205 106 48.9255 106C49.9304 106 50.7452 105.185 50.7452 104.18V93.3393C54.5687 92.6822 56.9919 89.8461 57.9578 84.8812C59.646 76.2017 65.2968 45.4125 68.1174 27.689C69.0491 21.834 67.7919 16.6243 64.3803 12.2046ZM64.523 27.1172C61.7085 44.8008 56.0696 75.5249 54.3849 84.1867C53.6809 87.8057 52.3106 89.1551 50.745 89.6225V13.1709C50.745 12.1659 49.9302 11.3511 48.9252 11.3511C47.9203 11.3511 47.1055 12.1659 47.1055 13.1709V83.5013C44.8649 82.9395 43.6778 81.2182 43.4956 78.2798C42.3819 60.3207 41.4627 14.3742 41.2639 3.92064C46.5175 4.85076 56.3778 7.79397 61.4992 14.4288C64.2737 18.0225 65.2911 22.2917 64.523 27.1172Z" fill="black"/>
</svg>
