<svg width="100" height="100" viewBox="0 0 100 100" fill="none" xmlns="http://www.w3.org/2000/svg">
<g clip-path="url(#clip0_405_133)">
<path d="M86.1251 58H67.3751C65.7181 58.0019 64.1295 58.661 62.9578 59.8327C61.7861 61.0044 61.127 62.593 61.1251 64.25V70.5H43.6692L29.8751 56.7059V39.25H36.1251C37.7821 39.2481 39.3707 38.589 40.5424 37.4173C41.7141 36.2456 42.3732 34.657 42.3751 33V14.25C42.3732 12.593 41.7141 11.0044 40.5424 9.83268C39.3707 8.66099 37.7821 8.0019 36.1251 8H17.3751C15.7181 8.0019 14.1295 8.66099 12.9578 9.83268C11.7861 11.0044 11.127 12.593 11.1251 14.25V33C11.127 34.657 11.7861 36.2456 12.9578 37.4173C14.1295 38.589 15.7181 39.2481 17.3751 39.25H23.6251V56.7059L8.91573 71.4156C8.62543 71.7057 8.39513 72.0501 8.238 72.4292C8.08087 72.8083 8 73.2146 8 73.625C8 74.0354 8.08087 74.4417 8.238 74.8208C8.39513 75.1999 8.62543 75.5443 8.91573 75.8344L24.5407 91.4594C24.8308 91.7496 25.1752 91.9799 25.5543 92.137C25.9334 92.2941 26.3398 92.375 26.7501 92.375C27.1605 92.375 27.5668 92.2941 27.9459 92.137C28.325 91.9799 28.6694 91.7496 28.9595 91.4594L43.6692 76.75H61.1251V83C61.127 84.657 61.7861 86.2456 62.9578 87.4173C64.1295 88.589 65.7181 89.2481 67.3751 89.25H86.1251C87.7821 89.2481 89.3707 88.589 90.5424 87.4173C91.7141 86.2456 92.3732 84.657 92.3751 83V64.25C92.3732 62.593 91.7141 61.0044 90.5424 59.8327C89.3707 58.661 87.7821 58.0019 86.1251 58ZM17.3751 14.25H36.1251V33H17.3751V14.25ZM26.7501 84.8309L15.5442 73.625L26.7501 62.4191L37.9561 73.625L26.7501 84.8309ZM67.3751 83V64.25H86.1251V83H67.3751Z" fill="black"/>
</g>
<defs>
<clipPath id="clip0_405_133">
<rect width="100" height="100" fill="white"/>
</clipPath>
</defs>
</svg>
