<svg width="55" height="12" viewBox="0 0 55 12" fill="none" xmlns="http://www.w3.org/2000/svg">
<path d="M3.214 1.004C4.04467 1.004 4.74 1.08333 5.3 1.242C5.86933 1.40067 6.294 1.662 6.574 2.026C6.86333 2.39 7.008 2.87533 7.008 3.482C7.008 3.874 6.93333 4.224 6.784 4.532C6.644 4.83067 6.42933 5.08267 6.14 5.288C5.86 5.484 5.51467 5.61933 5.104 5.694V5.764C5.524 5.82933 5.902 5.95067 6.238 6.128C6.58333 6.30533 6.854 6.55733 7.05 6.884C7.246 7.21067 7.344 7.63533 7.344 8.158C7.344 8.76467 7.204 9.28267 6.924 9.712C6.644 10.132 6.24267 10.454 5.72 10.678C5.20667 10.8927 4.59067 11 3.872 11H0.358V1.004H3.214ZM3.466 5.26C4.32467 5.26 4.91267 5.12467 5.23 4.854C5.54733 4.574 5.706 4.16333 5.706 3.622C5.706 3.07133 5.51 2.67933 5.118 2.446C4.73533 2.20333 4.11933 2.082 3.27 2.082H1.618V5.26H3.466ZM1.618 6.31V9.936H3.634C4.52067 9.936 5.13667 9.76333 5.482 9.418C5.82733 9.07267 6 8.62 6 8.06C6 7.70533 5.92067 7.39733 5.762 7.136C5.61267 6.87467 5.356 6.674 4.992 6.534C4.63733 6.38467 4.152 6.31 3.536 6.31H1.618ZM18.1855 5.988C18.1855 6.76267 18.0875 7.46733 17.8915 8.102C17.6955 8.72733 17.4015 9.26867 17.0095 9.726C16.6268 10.1833 16.1461 10.5333 15.5675 10.776C14.9981 11.0187 14.3355 11.14 13.5795 11.14C12.7955 11.14 12.1141 11.0187 11.5355 10.776C10.9568 10.524 10.4761 10.174 10.0935 9.726C9.7108 9.26867 9.42614 8.72267 9.23947 8.088C9.0528 7.45333 8.95947 6.74867 8.95947 5.974C8.95947 4.94733 9.12747 4.05133 9.46347 3.286C9.79947 2.52067 10.3081 1.92333 10.9895 1.494C11.6801 1.06467 12.5481 0.85 13.5935 0.85C14.5921 0.85 15.4321 1.06467 16.1135 1.494C16.7948 1.914 17.3081 2.51133 17.6535 3.286C18.0081 4.05133 18.1855 4.952 18.1855 5.988ZM10.2895 5.988C10.2895 6.828 10.4061 7.55133 10.6395 8.158C10.8728 8.76467 11.2321 9.23133 11.7175 9.558C12.2121 9.88467 12.8328 10.048 13.5795 10.048C14.3355 10.048 14.9515 9.88467 15.4275 9.558C15.9128 9.23133 16.2721 8.76467 16.5055 8.158C16.7388 7.55133 16.8555 6.828 16.8555 5.988C16.8555 4.728 16.5941 3.74333 16.0715 3.034C15.5488 2.31533 14.7228 1.956 13.5935 1.956C12.8375 1.956 12.2121 2.11933 11.7175 2.446C11.2321 2.76333 10.8728 3.22533 10.6395 3.832C10.4061 4.42933 10.2895 5.148 10.2895 5.988ZM26.9175 11H25.4895L22.8435 6.66L20.1555 11H18.8255L22.1435 5.792L19.0355 1.004H20.4355L22.8855 4.924L25.3495 1.004H26.6795L23.5855 5.764L26.9175 11ZM33.9167 11H28.3307V1.004H33.9167V2.11H29.5907V5.232H33.6647V6.324H29.5907V9.894H33.9167V11ZM44.118 5.904C44.118 7.024 43.908 7.962 43.488 8.718C43.0773 9.474 42.4846 10.0433 41.71 10.426C40.9353 10.8087 39.9973 11 38.896 11H36.11V1.004H39.19C40.198 1.004 41.0706 1.19067 41.808 1.564C42.5453 1.93733 43.1146 2.488 43.516 3.216C43.9173 3.93467 44.118 4.83067 44.118 5.904ZM42.788 5.946C42.788 5.05933 42.6386 4.33133 42.34 3.762C42.0506 3.19267 41.6213 2.77267 41.052 2.502C40.492 2.222 39.8106 2.082 39.008 2.082H37.37V9.922H38.728C40.0813 9.922 41.094 9.59067 41.766 8.928C42.4473 8.256 42.788 7.262 42.788 5.946ZM54.3445 5.904C54.3445 7.024 54.1345 7.962 53.7145 8.718C53.3038 9.474 52.7112 10.0433 51.9365 10.426C51.1618 10.8087 50.2238 11 49.1225 11H46.3365V1.004H49.4165C50.4245 1.004 51.2972 1.19067 52.0345 1.564C52.7718 1.93733 53.3412 2.488 53.7425 3.216C54.1438 3.93467 54.3445 4.83067 54.3445 5.904ZM53.0145 5.946C53.0145 5.05933 52.8652 4.33133 52.5665 3.762C52.2772 3.19267 51.8478 2.77267 51.2785 2.502C50.7185 2.222 50.0372 2.082 49.2345 2.082H47.5965V9.922H48.9545C50.3078 9.922 51.3205 9.59067 51.9925 8.928C52.6738 8.256 53.0145 7.262 53.0145 5.946Z" fill="black"/>
</svg>
